<?xml version="1.0" encoding="UTF-8" standalone="no"?>
<svg
   xmlns:dc="http://purl.org/dc/elements/1.1/"
   xmlns:cc="http://creativecommons.org/ns#"
   xmlns:rdf="http://www.w3.org/1999/02/22-rdf-syntax-ns#"
   xmlns:svg="http://www.w3.org/2000/svg"
   xmlns="http://www.w3.org/2000/svg"
   xmlns:sodipodi="http://sodipodi.sourceforge.net/DTD/sodipodi-0.dtd"
   xmlns:inkscape="http://www.inkscape.org/namespaces/inkscape"
   version="1.1"
   x="0px"
   y="0px"
   viewBox="0 0 50 50"
   enable-background="new 0 0 50 50"
   xml:space="preserve"
   id="svg10"
   sodipodi:docname="fullscreen.svg"
   width="50"
   height="50"
   inkscape:version="1.0.1 (3bc2e813f5, 2020-09-07)"><metadata
     id="metadata16"><rdf:RDF><cc:Work
         rdf:about=""><dc:format>image/svg+xml</dc:format><dc:type
           rdf:resource="http://purl.org/dc/dcmitype/StillImage" /><dc:title /></cc:Work></rdf:RDF></metadata><defs
     id="defs14" /><sodipodi:namedview
     pagecolor="#ffffff"
     bordercolor="#666666"
     borderopacity="1"
     objecttolerance="10"
     gridtolerance="10"
     guidetolerance="10"
     inkscape:pageopacity="0"
     inkscape:pageshadow="2"
     inkscape:window-width="2560"
     inkscape:window-height="1377"
     id="namedview12"
     showgrid="false"
     inkscape:zoom="16.178603"
     inkscape:cx="24.648637"
     inkscape:cy="21.574065"
     inkscape:window-x="0"
     inkscape:window-y="0"
     inkscape:window-maximized="1"
     inkscape:current-layer="svg10"
     inkscape:document-rotation="0" /><g
     id="g4"><path
       fill-rule="evenodd"
       clip-rule="evenodd"
       d="M 14.622,17.053 4.222,6.656 2.844,8.034 2.842,2.843 H 8.037 L 6.231,4.647 16.63,15.045 Z m 20.757,0 L 33.37,15.045 43.769,4.647 41.964,2.842 h 5.194 L 47.157,8.033 45.778,6.654 Z M 29.353,15.045 35.379,21.07 45.778,10.673 49.996,14.894 50,0.004 35.108,0 39.753,4.647 Z m 6.026,17.902 10.399,10.398 1.379,-1.379 0.001,5.191 -5.194,0.001 1.805,-1.805 L 33.37,34.955 Z m 0,-4.017 -6.026,6.025 L 39.752,45.352 35.108,50 50,49.996 49.995,35.107 45.777,39.328 Z M 4.222,43.345 14.621,32.947 16.629,34.955 6.231,45.352 8.036,47.157 2.841,47.156 2.843,41.965 Z M 20.647,34.955 14.621,28.93 4.222,39.327 0.004,35.106 0,49.996 14.893,50 10.248,45.352 Z M 4.222,10.672 14.621,21.069 20.647,15.044 10.248,4.647 14.893,0 0,0.004 0.005,14.894 Z"
       id="path2" /></g><path
     style="fill:#000000;stroke-width:0.06181"
     d="M 2.2824594,0.30392888 C 1.0462858,0.5647967 0.14463556,1.78078 0.23013986,3.0373322 0.26476825,4.7448367 0.16908341,6.4612686 0.33156382,8.1629125 0.45289413,9.4577744 1.628694,10.546307 2.9385451,10.507746 c 0.4136013,0.0052 0.8177827,-0.11635 1.1906098,-0.289585 2.962317,2.914328 5.8731261,5.904632 8.8669631,8.800808 1.011606,0.830779 2.602342,0.732587 3.512186,-0.205229 0.779718,-0.791779 1.646574,-1.515673 2.316789,-2.403098 0.67794,-1.068381 0.40643,-2.557502 -0.547492,-3.370006 C 15.474995,10.237898 12.672391,7.4351581 9.8697619,4.6324421 10.864325,3.628312 10.799167,1.8231139 9.7103371,0.9139465 8.9430898,0.15750245 7.8093906,0.22992836 6.8148732,0.24561982 5.3232456,0.27558007 3.8250835,0.18254126 2.3379985,0.29801106 Z"
     id="path52" /><path
     style="fill:#000000;stroke-width:0.06181"
     d="m 41.440685,0.30392888 c -1.339661,0.2757879 -2.301354,1.70740582 -1.98966,3.04824182 0.08074,0.484493 0.336259,0.9156064 0.652656,1.2840138 -2.871418,2.884032 -5.768955,5.7445685 -8.624226,8.6431085 -0.963708,1.004547 -0.863764,2.742926 0.163681,3.66694 0.796473,0.749911 1.500759,1.609997 2.384449,2.26046 1.058093,0.664666 2.526837,0.430683 3.351809,-0.499252 2.841346,-2.804232 5.655967,-5.635392 8.48095,-8.456081 1.205366,0.737067 2.938709,0.237903 3.571044,-1.0247681 0.516614,-0.983744 0.249425,-2.1348621 0.316106,-3.1998024 -0.02931,-1.2422758 0.06454,-2.4910942 -0.05831,-3.7284005 -0.260517,-1.2340141 -1.472596,-2.13486928 -2.727126,-2.05276918 -1.759944,0.0210544 -3.524386,-0.0425615 -5.281449,0.0327446 -0.07998,0.008521 -0.15995,0.017043 -0.239925,0.0255645 z"
     id="path54" /><path
     style="fill:#000000;stroke-width:0.06181"
     d="m 34.732244,30.489197 c -1.114165,0.305517 -1.810664,1.295864 -2.619064,2.04687 -0.709542,0.658486 -1.368507,1.529191 -1.269694,2.551226 -4.22e-4,1.040938 0.786762,1.796882 1.477847,2.472141 2.578638,2.622327 5.187398,5.214772 7.78609,7.817168 -0.994563,1.00413 -0.929405,2.809328 0.159425,3.718495 0.767247,0.756445 1.900946,0.684019 2.895464,0.668327 1.491627,-0.02996 2.989789,0.06308 4.476874,-0.05239 1.285639,-0.226932 2.215334,-1.504671 2.108308,-2.794854 -0.02104,-1.739181 0.04254,-3.482857 -0.03274,-5.219156 -0.120719,-1.497782 -1.750944,-2.621696 -3.194122,-2.201194 -0.377999,0.07149 -0.726696,0.443451 -0.969011,-0.04686 -2.820046,-2.802457 -5.601878,-5.644745 -8.467936,-8.400102 -0.646784,-0.54635 -1.527715,-0.752596 -2.351437,-0.55967 z"
     id="path56" /><path
     style="fill:#000000;stroke-width:0.06181"
     d="m 13.927132,30.477004 c -1.101635,0.342723 -1.746074,1.372691 -2.573151,2.105645 -2.4008434,2.398185 -4.7949273,4.803169 -7.2067177,7.190366 -1.2080381,-0.755818 -2.9634719,-0.266064 -3.60134581,1.009317 -0.51686922,0.983706 -0.24948458,2.134946 -0.31622724,3.199922 0.0271363,1.210167 -0.0577403,2.432207 0.0928853,3.634242 0.22522234,1.251555 1.44104425,2.165363 2.69846545,2.122904 1.7421487,0.02365 3.4885588,0.05988 5.2286218,-0.03573 1.3227199,-0.140703 2.4049442,-1.395662 2.2961562,-2.729592 -0.02353,-0.593496 -0.273448,-1.166416 -0.6601219,-1.613409 2.8782259,-2.890663 5.7824279,-5.757975 8.6443869,-8.663268 0.964686,-1.005478 0.863432,-2.746131 -0.166466,-3.669468 -0.798251,-0.745796 -1.497365,-1.610319 -2.375302,-2.262191 -0.617359,-0.374735 -1.364507,-0.465687 -2.061184,-0.288735 z"
     id="path58" /></svg>
