<svg xmlns="http://www.w3.org/2000/svg" height="24px" viewBox="40 -920 880 880" width="24px" fill="#e3e3e3"><path d="M440-280h80l12-60q12-5 22.5-10.5T576-364l58 18 40-68-46-40q2-14 2-26t-2-26l46-40-40-68-58 18q-11-8-21.5-13.5T532-620l-12-60h-80l-12 60q-12 5-22.5 10.5T384-596l-58-18-40 68 46 40q-2 14-2 26t2 26l-46 40 40 68 58-18q11 8 21.5 13.5T428-340l12 60Zm-16.5-143.5Q400-447 400-480t23.5-56.5Q447-560 480-560t56.5 23.5Q560-513 560-480t-23.5 56.5Q513-400 480-400t-56.5-23.5ZM200-120q-33 0-56.5-23.5T120-200v-560q0-33 23.5-56.5T200-840h560q33 0 56.5 23.5T840-760v560q0 33-23.5 56.5T760-120H200Zm0-80h560v-560H200v560Zm0-560v560-560Z"/></svg>