<?xml version="1.0" encoding="UTF-8" standalone="no"?>
<!-- Created with Inkscape (http://www.inkscape.org/) -->

<svg
   width="256mm"
   height="256mm"
   viewBox="0 0 256 256"
   version="1.1"
   id="svg5"
   xmlns="http://www.w3.org/2000/svg"
   xmlns:svg="http://www.w3.org/2000/svg">
  <defs
     id="defs2" />
  <g
     id="layer1">
    <g
       aria-label="ã‚"
       id="text3399"
       style="font-weight:bold;font-size:246.944px;line-height:1.25;font-family:'Noto Sans CJK JP';-inkscape-font-specification:'Noto Sans CJK JP Bold';text-align:center;text-anchor:middle;stroke-width:0.264583">
      <path
         d="M 125.28362,21.073254 93.180897,20.332422 c 0.246944,4.198048 -0.246944,10.124704 -0.493888,14.81664 -0.493888,4.198048 -0.987776,8.64304 -1.481664,13.334976 -3.210272,0 -6.420544,0 -9.87776,0 -15.063584,0 -36.794656,-1.975552 -45.437696,-3.457216 l 0.740832,28.645504 c 11.606368,0.493888 30.868,1.481664 43.709088,1.481664 2.716384,0 5.185824,0 7.902208,0 -0.987776,10.124704 -1.728608,20.496352 -2.222496,31.11494 -34.57216,16.29831 -60.748224,49.3888 -60.748224,81.24458 0,24.94134 15.310528,35.80688 33.33744,35.80688 13.088032,0 26.176064,-3.9511 38.27632,-9.87776 0.987776,3.45722 2.222496,6.91443 3.210273,10.1247 l 28.39856,-8.64304 c -1.97555,-5.92665 -3.95111,-12.10025 -5.67971,-18.27385 18.76774,-15.55747 38.52326,-41.48659 51.85824,-75.07098 17.03913,6.66749 25.68217,19.75552 25.68217,34.57216 0,24.20051 -19.26163,48.40103 -66.92182,53.58685 l 16.2983,25.92912 c 60.74823,-9.13693 81.24458,-42.96826 81.24458,-78.0343 0,-28.64551 -19.01469,-51.11741 -47.66019,-60.501284 1.48166,-4.691936 3.45721,-9.87776 4.44499,-12.594144 l -30.12717,-7.161376 c -0.24694,3.70416 -1.23472,9.87776 -2.2225,14.81664 -1.48166,0 -2.96332,0 -4.44499,0 -12.10025,0 -24.94134,1.728608 -36.79465,4.444992 0.24694,-7.40832 0.98777,-15.063584 1.7286,-22.471904 30.37412,-1.23472 63.46461,-4.198048 87.66512,-8.64304 L 203.31792,36.87767 c -27.16384,6.420544 -53.83379,9.630816 -83.96096,10.865536 0.74083,-4.93888 1.72861,-9.383872 2.46944,-13.58192 0.98778,-3.70416 1.97555,-8.149152 3.45722,-13.088032 z M 54.410689,181.09297 c 0,-14.07581 12.3472,-32.84356 30.868,-45.4377 0.493888,17.03914 2.46944,34.07827 5.185824,49.3888 -8.889984,5.18582 -17.779968,8.14915 -24.6944,8.14915 -7.902208,0 -11.359424,-4.19805 -11.359424,-12.10025 z m 58.772671,-57.53796 v -0.74083 c 9.63082,-2.96333 20.99024,-5.18582 34.07827,-5.43277 -8.39609,20.00247 -19.50857,35.06605 -31.11494,47.16631 -1.97555,-12.3472 -2.96333,-25.92912 -2.96333,-40.99271 z"
         id="path50274" />
    </g>
  </g>
</svg>
