<?xml version="1.0" encoding="UTF-8"?>
<svg width="512px" height="512px" enable-background="new 0 0 512 512" version="1.1" viewBox="0 0 512 512" xml:space="preserve" xmlns="http://www.w3.org/2000/svg" xmlns:cc="http://creativecommons.org/ns#" xmlns:dc="http://purl.org/dc/elements/1.1/" xmlns:rdf="http://www.w3.org/1999/02/22-rdf-syntax-ns#"><metadata><rdf:RDF><cc:Work rdf:about=""><dc:format>image/svg+xml</dc:format><dc:type rdf:resource="http://purl.org/dc/dcmitype/StillImage"/><dc:title/></cc:Work></rdf:RDF></metadata><polygon points="231 407.8 231 104.3 136.1 192 32 192 32 320 136.1 320"/><path d="m287.1 355.7c20.5-27.9 32.8-62.3 32.8-99.7s-12.3-71.8-32.8-99.7l-20.4 15.3c17.4 23.6 27.8 52.7 27.8 84.4 0 31.6-10.4 60.8-27.8 84.3l20.4 15.4z"/><path d="m353.7 401.7c30-40.7 48-91.1 48-145.7s-18-104.9-48-145.7l-20.4 15.3c26.9 36.4 43 81.5 43 130.4s-16.1 93.9-43 130.3l20.4 15.4z"/><path d="m396.7 79.4c36.4 49.3 57.9 110.5 57.9 176.6s-21.5 127.2-57.9 176.6l20.5 15.4c39.4-53.6 62.8-120 62.8-192s-23.4-138.4-62.8-192l-20.5 15.4z"/><path d="m156.97 137.11-43.095-43.259 43.194-42.701c1.7737-1.7738 1.7737-4.6643 0-6.438l-12.285-12.35c-0.85401-0.85402-2.0036-1.3139-3.219-1.3139-1.2153 0-2.365 0.49272-3.219 1.3139l-42.997 42.57-43.062-42.537c-0.85402-0.85401-2.0037-1.3139-3.219-1.3139-1.2153 0-2.365 0.4927-3.219 1.3139l-12.252 12.35c-1.7737 1.7737-1.7737 4.6642 0 6.438l43.194 42.701-43.062 43.227c-0.85402 0.85403-1.3467 2.0037-1.3467 3.219 0 1.2153 0.45986 2.365 1.3467 3.219l12.285 12.35c0.88688 0.88686 2.0365 1.3467 3.219 1.3467 1.1496 0 2.3321-0.42701 3.219-1.3467l42.898-43.095 42.931 43.062c0.88685 0.88687 2.0365 1.3467 3.219 1.3467 1.1496 0 2.3321-0.42702 3.219-1.3467l12.285-12.35c0.85401-0.85402 1.3467-2.0037 1.3467-3.219-0.0329-1.1825-0.52554-2.3321-1.3796-3.1862z" stroke-width=".32847"/></svg>
