<?xml version="1.0" encoding="UTF-8" standalone="no"?>
<svg
   xmlns:dc="http://purl.org/dc/elements/1.1/"
   xmlns:cc="http://creativecommons.org/ns#"
   xmlns:rdf="http://www.w3.org/1999/02/22-rdf-syntax-ns#"
   xmlns:svg="http://www.w3.org/2000/svg"
   xmlns="http://www.w3.org/2000/svg"
   xmlns:sodipodi="http://sodipodi.sourceforge.net/DTD/sodipodi-0.dtd"
   xmlns:inkscape="http://www.inkscape.org/namespaces/inkscape"
   id="Capa_1"
   version="1.1"
   viewBox="0 0 65 64.999999"
   xml:space="preserve"
   sodipodi:docname="pause.svg"
   width="65"
   height="65"
   inkscape:version="1.0.2-2 (e86c870879, 2021-01-15)"><metadata
     id="metadata11"><rdf:RDF><cc:Work
         rdf:about=""><dc:format>image/svg+xml</dc:format><dc:type
           rdf:resource="http://purl.org/dc/dcmitype/StillImage" /><dc:title></dc:title></cc:Work></rdf:RDF></metadata><defs
     id="defs9" /><sodipodi:namedview
     pagecolor="#ffffff"
     bordercolor="#666666"
     borderopacity="1"
     objecttolerance="10"
     gridtolerance="10"
     guidetolerance="10"
     inkscape:pageopacity="0"
     inkscape:pageshadow="2"
     inkscape:window-width="2560"
     inkscape:window-height="1378"
     id="namedview7"
     showgrid="false"
     inkscape:zoom="10.08"
     inkscape:cx="5.8623016"
     inkscape:cy="28.3"
     inkscape:window-x="-8"
     inkscape:window-y="-8"
     inkscape:window-maximized="1"
     inkscape:current-layer="Capa_1" /><path
     d="M 26.7,60.8 H 14.6 c -1.1,0 -2,-0.9 -2,-2 V 6.2 c 0,-1.1 0.9,-2 2,-2 h 12.1 c 1.1,0 2,0.9 2,2 v 52.5 c 0,1.2 -0.9,2.1 -2,2.1 z"
     id="path2" /><path
     d="M 50.4,60.8 H 38.3 c -1.1,0 -2,-0.9 -2,-2 V 6.2 c 0,-1.1 0.9,-2 2,-2 h 12.1 c 1.1,0 2,0.9 2,2 v 52.5 c 0,1.2 -0.9,2.1 -2,2.1 z"
     id="path4" /></svg>
