<?xml version="1.0" encoding="UTF-8" standalone="no"?>
<svg
   xmlns:dc="http://purl.org/dc/elements/1.1/"
   xmlns:cc="http://creativecommons.org/ns#"
   xmlns:rdf="http://www.w3.org/1999/02/22-rdf-syntax-ns#"
   xmlns:svg="http://www.w3.org/2000/svg"
   xmlns="http://www.w3.org/2000/svg"
   xmlns:sodipodi="http://sodipodi.sourceforge.net/DTD/sodipodi-0.dtd"
   xmlns:inkscape="http://www.inkscape.org/namespaces/inkscape"
   version="1.1"
   x="0px"
   y="0px"
   viewBox="0 0 50 50"
   enable-background="new 0 0 50 50"
   xml:space="preserve"
   id="svg10"
   sodipodi:docname="restore.svg"
   width="50"
   height="50"
   inkscape:version="1.0.1 (3bc2e813f5, 2020-09-07)"><metadata
     id="metadata16"><rdf:RDF><cc:Work
         rdf:about=""><dc:format>image/svg+xml</dc:format><dc:type
           rdf:resource="http://purl.org/dc/dcmitype/StillImage" /><dc:title /></cc:Work></rdf:RDF></metadata><defs
     id="defs14" /><sodipodi:namedview
     pagecolor="#ffffff"
     bordercolor="#666666"
     borderopacity="1"
     objecttolerance="10"
     gridtolerance="10"
     guidetolerance="10"
     inkscape:pageopacity="0"
     inkscape:pageshadow="2"
     inkscape:window-width="2560"
     inkscape:window-height="1377"
     id="namedview12"
     showgrid="false"
     inkscape:zoom="11.44"
     inkscape:cx="25"
     inkscape:cy="31.162587"
     inkscape:window-x="0"
     inkscape:window-y="0"
     inkscape:window-maximized="1"
     inkscape:current-layer="svg10"
     inkscape:document-rotation="0" /><g
     id="g4"><path
       fill-rule="evenodd"
       clip-rule="evenodd"
       d="M 0,6.025 10.399,16.422 5.754,21.07 20.647,21.066 20.642,6.176 16.424,10.397 6.026,0 Z m 33.576,8.389 10.399,-10.397 2.008,2.008 -10.399,10.397 1.805,1.805 h -5.194 l 0.002,-5.191 z M 29.358,6.176 29.353,21.065 44.245,21.069 39.601,16.422 50,6.025 43.975,0 33.576,10.398 Z m 2.837,25.598 5.194,-0.001 -1.805,1.805 10.399,10.397 -2.008,2.008 -10.399,-10.397 -1.379,1.379 z M 44.246,28.931 29.354,28.935 29.359,43.824 33.577,39.603 43.975,50 50,43.975 39.601,33.578 Z m -31.635,2.842 5.195,0.001 -0.002,5.191 L 16.425,35.586 6.026,45.983 4.017,43.975 14.416,33.578 Z M 20.642,43.824 20.647,28.935 5.754,28.931 10.399,33.578 0,43.975 6.026,50 16.425,39.603 Z M 6.026,4.017 l 10.399,10.397 1.379,-1.379 0.002,5.191 H 12.611 L 14.416,16.421 4.017,6.025 Z"
       id="path2" /></g><path
     style="fill:#000000;stroke-width:0.0874126"
     d="M 5.2616573,1.5396225 C 4.0519385,2.0019016 3.3331539,3.1636919 2.3856989,3.9874655 1.3043868,4.8877844 1.0937651,6.6456097 2.0519843,7.7077869 4.9194935,10.64824 7.8581172,13.524819 10.752943,16.440737 c -1.0859606,1.090078 -0.8825309,3.119798 0.44251,3.922933 1.083975,0.753808 2.477029,0.365121 3.709418,0.461867 1.228499,-0.06797 2.502994,0.159704 3.697992,-0.164542 1.226384,-0.388373 1.883503,-1.728207 1.741904,-2.959946 -0.0479,-1.728948 0.100243,-3.471219 -0.08279,-5.190983 C 19.944826,11.009113 18.14016,10.085446 16.74487,10.735611 16.263639,10.941045 15.951501,10.095147 15.542043,9.8543466 12.933384,7.2683833 10.366513,4.6345261 7.7318329,2.0783852 7.068277,1.4724221 6.1162556,1.3077913 5.2616573,1.5396225 Z"
     id="path8" /><path
     style="fill:#000000;stroke-width:0.0874126"
     d="m 43.192745,1.5406469 c -1.227012,0.4758669 -1.954899,1.6597373 -2.918197,2.4976824 -2.264265,2.2640419 -4.52853,4.5280834 -6.792795,6.7921247 -1.21823,-0.670546 -2.886397,-0.170797 -3.514915,1.074652 -0.550102,1.135029 -0.2227,2.443093 -0.311606,3.658773 0.06526,1.169215 -0.154882,2.383863 0.164543,3.519753 0.388372,1.226384 1.728207,1.883503 2.959945,1.741905 1.730089,-0.04786 3.473493,0.100188 5.194398,-0.08279 1.500959,-0.317154 2.424609,-2.121811 1.774464,-3.517111 -0.20469,-0.494199 -0.758979,-0.862935 -0.06683,-1.219635 2.741576,-2.764268 5.531005,-5.486783 8.242763,-8.2770665 C 48.928069,6.6557128 48.691476,4.8407964 47.568455,3.9417508 46.602368,3.1019137 45.865642,1.8857425 44.587248,1.4976234 44.111152,1.4096396 43.662547,1.423622 43.192745,1.5406469 Z"
     id="path10" /><path
     style="fill:#000000;stroke-width:0.0874126"
     d="m 31.557651,29.269729 c -1.260698,0.352169 -2.045137,1.663368 -1.902419,2.941809 0.04319,1.729269 -0.0888,3.470443 0.07097,5.191787 0.244348,1.451304 1.887141,2.419099 3.282342,1.957519 0.525419,-0.442013 0.82019,0.212907 1.202299,0.537447 2.733205,2.701182 5.402473,5.471583 8.192803,8.11239 1.092077,0.825006 2.722868,0.601567 3.612668,-0.418184 0.775786,-0.822215 1.733714,-1.52186 2.292076,-2.513583 0.590585,-1.141454 0.107214,-2.551369 -0.862878,-3.321493 -2.733178,-2.732813 -5.466359,-5.465624 -8.199476,-8.198499 1.085455,-1.092164 0.880873,-3.123153 -0.446946,-3.924987 -1.084,-0.750603 -2.474777,-0.362845 -3.706005,-0.459472 -1.176932,0.03846 -2.36934,-0.09192 -3.53543,0.09527 z"
     id="path12" /><path
     style="fill:#000000;stroke-width:0.0874126"
     d="m 11.936599,29.269729 c -1.355757,0.374043 -2.2189655,1.912243 -1.779578,3.258042 -0.01516,0.460792 0.789877,0.892861 0.409458,1.21862 -2.823482,2.845654 -5.6948898,5.64947 -8.4886264,8.521078 -1.001729,1.071281 -0.7681683,2.882183 0.3500902,3.782944 0.970262,0.853867 1.7327566,2.087186 3.0525874,2.426184 1.0971775,0.234095 2.1687254,-0.32856 2.86121,-1.158072 2.7403648,-2.701365 5.4536528,-5.430007 8.1765068,-8.148979 1.21823,0.670546 2.886397,0.170797 3.514915,-1.074652 0.550102,-1.135029 0.2227,-2.443093 0.311605,-3.658773 -0.06526,-1.169215 0.154882,-2.383863 -0.164541,-3.519753 -0.388374,-1.226384 -1.728208,-1.883503 -2.959946,-1.741905 -1.729404,0.04789 -3.472129,-0.10022 -5.192349,0.08279 l -0.08661,0.01183 z"
     id="path14" /></svg>
