<?xml version="1.0" encoding="UTF-8" standalone="no"?>
<svg
   xmlns:dc="http://purl.org/dc/elements/1.1/"
   xmlns:cc="http://creativecommons.org/ns#"
   xmlns:rdf="http://www.w3.org/1999/02/22-rdf-syntax-ns#"
   xmlns:svg="http://www.w3.org/2000/svg"
   xmlns="http://www.w3.org/2000/svg"
   width="448.53333"
   height="512"
   viewBox="0 0 118.67445 135.46667"
   version="1.1"
   id="svg993">
  <defs
     id="defs987">
    <clipPath
       clipPathUnits="userSpaceOnUse"
       id="clipPath2815">
      <rect
         style="opacity:1;fill:#d533e4;fill-opacity:0.540984;stroke:none;stroke-width:1;stroke-miterlimit:4;stroke-dasharray:none;stroke-opacity:1"
         id="rect1913"
         width="23"
         height="30"
         x="5"
         y="1"
         ry="4.6187186"
         rx="4.6187186" />
    </clipPath>
    <linearGradient
       id="linearGradient4825">
      <stop
         id="stop4827"
         offset="0"
         style="stop-color:#0084dd;stop-opacity:1" />
      <stop
         id="stop4829"
         offset="1"
         style="stop-color:white;stop-opacity:1" />
    </linearGradient>
    <linearGradient
       id="linearGradient4843">
      <stop
         style="stop-color:white;stop-opacity:0.49411765;"
         offset="0"
         id="stop4845" />
      <stop
         style="stop-color:white;stop-opacity:0.25098041;"
         offset="1"
         id="stop4847" />
    </linearGradient>
  </defs>
  <metadata
     id="metadata990">
    <rdf:RDF>
      <cc:Work
         rdf:about="">
        <dc:format>image/svg+xml</dc:format>
        <dc:type
           rdf:resource="http://purl.org/dc/dcmitype/StillImage" />
        <dc:title></dc:title>
      </cc:Work>
    </rdf:RDF>
  </metadata>
  <g
     id="layer1"
     transform="translate(-62.975876,-95.55238)">
    <g
       id="g2807"
       clip-path="url(#clipPath2815)"
       style="display:inline"
       transform="matrix(4.5155556,0,0,4.5155556,47.80643,91.036824)">
      <path
         id="rect2802"
         style="display:inline;opacity:1;fill:#000000;fill-opacity:1;stroke:none;stroke-width:20.48;stroke-miterlimit:4;stroke-dasharray:none;stroke-opacity:1"
         d="M -57.333984 -17.066406 L -57.333984 529.06641 L 488.80078 529.06641 L 488.80078 -17.066406 L -57.333984 -17.066406 z M 326.9375 64.248047 C 328.52805 64.298064 330.2052 64.625013 331.83008 65.382812 C 335.07983 66.898414 337.1492 69.683162 338.24609 72.091797 C 339.343 74.500437 339.77201 76.764132 340.04102 79.019531 C 340.57901 83.530339 340.35956 88.150724 340.08984 92.728516 C 339.82012 97.306308 339.45989 101.7999 339.41797 105.26367 C 339.39039 107.54254 339.75112 109.33356 339.83203 110.0332 C 340.38197 110.4721 341.7084 111.72915 343.65625 112.91406 C 346.61571 114.71436 350.6177 116.79071 354.64258 118.98828 C 358.66745 121.18585 362.70417 123.44792 366.24414 126.29492 C 368.01412 127.71843 369.70489 129.28151 371.16602 131.48828 C 372.62714 133.69505 373.89035 136.9253 373.45312 140.48438 C 373.01593 144.04342 371.00843 146.87068 369.05664 148.6582 C 367.10485 150.44573 365.08533 151.55306 363.02344 152.50586 C 358.89965 154.41144 354.43513 155.62901 349.99805 156.78711 C 345.56096 157.94521 341.17829 158.99294 337.87109 160.02344 C 335.69384 160.70186 334.10038 161.60009 333.46094 161.89258 C 333.21304 162.55191 332.42906 164.20029 331.9043 166.41797 C 331.10664 169.78891 330.36774 174.23717 329.52148 178.74414 C 328.67522 183.25111 327.77391 187.78867 326.16016 192.03516 C 325.35328 194.1584 324.38749 196.24877 322.74023 198.32031 C 321.09299 200.39186 318.41253 202.59334 314.89258 203.27734 C 311.37263 203.96135 308.06099 202.92498 305.75781 201.62109 C 303.45464 200.31721 301.77769 198.73881 300.23438 197.07227 C 297.14771 193.73917 294.61122 189.86986 292.13867 186.00781 C 289.66611 182.14577 287.31454 178.29955 285.3125 175.47266 C 283.99568 173.6133 282.65288 172.37618 282.17578 171.85742 C 281.47329 171.82569 279.65953 171.58905 277.38672 171.77539 C 273.93428 172.05845 269.47562 172.73047 264.92773 173.31836 C 260.37984 173.90625 255.78537 174.4491 251.24805 174.22656 C 248.97939 174.11529 246.69207 173.84445 244.21289 172.91797 C 241.7337 171.99148 238.81247 170.12263 237.07422 166.98633 C 235.33597 163.85003 235.29977 160.38048 235.82812 157.78711 C 236.35651 155.19374 237.3392 153.10973 238.44727 151.12695 C 240.6634 147.1614 243.55979 143.55474 246.46875 140.00977 C 249.37771 136.46479 252.30903 133.03933 254.37891 130.26172 C 255.74144 128.43331 256.50219 126.77283 256.84766 126.16016 C 256.66075 125.48212 256.32286 123.68589 255.44336 121.58203 C 254.10729 118.38603 252.09144 114.35457 250.12695 110.21094 C 248.16246 106.0673 246.22758 101.86449 245.03711 97.480469 C 244.44188 95.288456 243.99239 93.028912 244.10742 90.384766 C 244.22245 87.740619 245.09732 84.386021 247.54297 81.763672 C 248.15439 81.108086 248.81858 80.545627 249.51172 80.068359 C 251.59118 78.63656 253.93396 77.958554 255.90625 77.734375 C 258.53596 77.435471 260.82069 77.726847 263.04883 78.167969 C 267.50512 79.050213 271.83312 80.688241 276.10352 82.359375 C 280.3739 84.030508 284.53512 85.760855 287.81641 86.871094 C 289.97567 87.601687 291.79044 87.811933 292.48047 87.951172 C 293.06778 87.563799 294.67346 86.689521 296.40234 85.203125 C 299.02905 82.944833 302.24045 79.781607 305.57422 76.632812 C 308.90799 73.484017 312.30585 70.34241 316.10742 67.855469 C 318.00821 66.612001 320.01807 65.486982 322.56836 64.779297 C 323.8435 64.425454 325.34695 64.198029 326.9375 64.248047 z M 176.33789 218.72852 C 176.94748 218.71319 177.55109 218.73133 178.14453 218.7793 C 181.70519 219.06712 184.94216 220.42397 187.49414 222.0625 C 190.8968 224.24721 193.53746 226.9657 196.01172 229.95508 C 200.96022 235.93385 205.21918 243.21471 209.38281 250.5918 C 213.54646 257.96887 217.54484 265.42953 221.14844 271.16992 C 224.75203 276.91032 228.72867 280.68882 228.55859 280.59766 C 228.38852 280.50651 233.73824 281.72619 240.51367 281.54883 C 247.28912 281.37148 255.71366 280.57026 264.16211 279.95312 C 272.61057 279.33597 281.03144 278.85343 288.75 279.66406 C 292.60929 280.06938 296.3339 280.76277 300.03711 282.38672 C 303.74032 284.01068 307.70389 286.92747 309.89258 291.45312 C 312.08127 295.9788 311.90717 300.89346 310.88086 304.80469 C 309.85455 308.71591 308.08434 312.06878 306.00586 315.3457 C 301.84889 321.89954 296.24305 328.19995 290.51367 334.43945 C 284.78428 340.67896 278.92595 346.78523 274.58008 351.98633 C 270.23421 357.18743 267.86821 362.13718 267.90234 361.94727 C 267.93649 361.75736 268.42901 367.22231 270.69141 373.61133 C 272.95382 380.00035 276.31796 387.76708 279.51562 395.61133 C 282.71329 403.45558 285.77642 411.31496 287.39062 418.90625 C 288.19774 422.70189 288.68917 426.45863 288.28906 430.48242 C 287.88896 434.50621 286.33875 439.17617 282.71094 442.65625 C 279.08311 446.13633 274.35335 447.49009 270.31641 447.72266 C 266.27946 447.95522 262.54594 447.30788 258.78711 446.34375 C 251.26945 444.41549 243.5464 441.02866 235.8418 437.50781 C 228.1372 433.98696 220.5141 430.30329 214.22461 427.77734 C 207.93512 425.25141 202.49828 424.53012 202.68945 424.50391 C 202.88063 424.47768 197.83814 426.63572 192.46094 430.76172 C 187.08375 434.88771 180.73781 440.48992 174.26562 445.95508 C 167.79344 451.42024 161.26195 456.75763 154.54102 460.63867 C 151.18055 462.5792 147.75909 464.21133 143.80859 465.07422 C 139.8581 465.93711 134.94057 465.90415 130.50977 463.5293 C 126.07897 461.15443 123.32999 457.07609 121.86133 453.30859 C 120.39267 449.5411 119.85398 445.79077 119.60938 441.91797 C 119.12018 434.17239 119.95224 425.77879 120.91992 417.36328 C 121.8876 408.94777 123.03929 400.56104 123.49805 393.79883 C 123.9568 387.03661 122.96092 381.64269 123.04492 381.81641 C 123.12893 381.99011 119.51733 377.85854 113.93164 374.01953 C 108.34594 370.18051 101.05903 365.8748 93.861328 361.4082 C 86.66364 356.94161 79.566798 352.38408 73.798828 347.19141 C 70.914843 344.59507 68.307049 341.84401 66.265625 338.35352 C 64.224188 334.86302 62.735575 330.17438 63.625 325.22656 C 64.514438 320.27875 67.54457 316.40475 70.673828 313.84375 C 73.803086 311.28276 77.202884 309.61103 80.810547 308.18164 C 88.025859 305.32287 96.265698 303.52201 104.56836 301.8418 C 112.87101 300.16158 121.20238 298.6631 127.77539 297.00977 C 134.34841 295.35642 139.17049 292.74338 139.03125 292.87695 C 138.89199 293.01054 141.70386 288.2994 143.62891 281.80078 C 145.55395 275.30215 147.39811 267.04012 149.42188 258.81445 C 151.44566 250.58879 153.58801 242.43209 156.74414 235.3418 C 158.32221 231.79665 160.13344 228.4674 162.82227 225.44727 C 165.51108 222.42713 169.50973 219.56001 174.49023 218.87695 C 175.1128 218.79157 175.7283 218.74384 176.33789 218.72852 z "
         transform="matrix(0.05859375,0,0,0.05859375,3.3593753,1.0000001)" />
      <path
         transform="matrix(0.09169279,0.01148462,-0.01148462,0.09169279,1.24989,-28.62005)"
         id="path4877"
         style="fill:none;fill-opacity:1;stroke:none;stroke-width:16.2321;stroke-miterlimit:4;stroke-dasharray:none;stroke-opacity:1"
         d="m 312.50679,544.32837 c -20.28396,20.1643 -45.83498,-32.08006 -74.19864,-28.40036 -29.32333,3.80421 -41.202,60.28859 -67.50841,46.78663 -25.44547,-13.06007 16.34617,-53.50493 4.08171,-79.34329 -12.67942,-26.71258 -70.06997,-20.55523 -65.35797,-49.74645 4.55778,-28.23586 55.93746,-0.9878 76.72126,-20.63649 21.48703,-20.31349 -2.10362,-72.99241 27.11497,-77.53162 28.26233,-4.39065 18.22508,52.89443 43.33464,66.58923 25.95913,14.15816 68.76986,-24.55656 82.11594,1.82928 12.9093,25.52229 -44.67374,33.67836 -49.93898,61.7909 -5.4434,29.06371 44.60573,57.81562 23.63548,78.66217 z" />
      <g
         id="path4879"
         transform="matrix(0.07507522,4.398431e-4,-4.398431e-4,0.07507522,-2.36792,-12.92398)"
         style="opacity:1" />
      <g
         id="path4889"
         transform="matrix(0.03131375,-0.02522366,0.02522366,0.03131375,2.32085,0.206819)"
         style="opacity:1" />
    </g>
  </g>
</svg>
